<mxfile host="65bd71144e">
    <diagram id="l3I9abqoC3V5Le6GWZxR" name="Page-1">
        <mxGraphModel dx="345" dy="217" grid="1" gridSize="10" guides="1" tooltips="1" connect="1" arrows="1" fold="1" page="1" pageScale="1" pageWidth="827" pageHeight="1169" math="0" shadow="0">
            <root>
                <mxCell id="0"/>
                <mxCell id="1" parent="0"/>
                <mxCell id="2" value="https://mths-icd2o-1-2023.github.io/ICD2O-Assignment-06-George-Khalil-29/" style="swimlane;whiteSpace=wrap;html=1;" vertex="1" parent="1">
                    <mxGeometry x="140" y="120" width="570" height="350" as="geometry"/>
                </mxCell>
                <mxCell id="3" value="" style="rounded=1;whiteSpace=wrap;html=1;fontColor=#000000;fillColor=#0e3c4c;" vertex="1" parent="2">
                    <mxGeometry x="169.5" y="65" width="241" height="220" as="geometry"/>
                </mxCell>
                <mxCell id="4" value="Description: broken clouds" style="text;html=1;align=center;verticalAlign=middle;resizable=0;points=[];autosize=1;strokeColor=none;fillColor=none;" vertex="1" parent="2">
                    <mxGeometry x="200" y="80" width="170" height="30" as="geometry"/>
                </mxCell>
                <mxCell id="5" value="" style="shape=image;imageAspect=0;aspect=fixed;verticalLabelPosition=bottom;verticalAlign=top;image=data:image/webp,UklGRoAkAABXRUJQVlA4THQkAAAv/8F/EFVhmv9v2d02fil9HWFmks5zX//rObLHXXXV9+DXHunoPPf5XXBfZ6rJucro6YornY7DqF1RLmNwVQjIk+MyrrkNJytti2vUruzxKsyeCbMyY02YmUnZeeldMmgIZ8ecuAxKmSFcZq5n5HLoLirLjsK4erzrLnDaGc+UT0ndh/EFMCfyhE65JxxNVAwsy9yGYe9R6SrDEkMKc5k0ZVa8KHP7TGiFSkqBM3JKVkensM0cV9kay7iKd0W/AXurhmGVrafM/BRWzMxdM5xyyN1RwKNtDOoMUzjLjt9AYIaObNuy2+bOf24OncuNGhBv730fINip5Nq23bZ5A/x3zv0AlOU0iiW4APdfE4EvAQIAgomOQ7Zt2+uzbdu2bdu2bdt+Z9s2PUGyLUuSJEnCRuC+PIfu40FErgizsO5GMQ/AKOYBZ2NdEvF45jqLv9FkrrOMzT8S/kaTuc7ibzSZ6yz+RpO5zuJvNJnrLFn+Yf2NJnOdxd9oMtdZ/I0mc50lkenfPcjyf++wAoC9wyz/9w4rANg7zPJ/77ACgL3DLP/3DisA2DvM8n/vsAKAvcMs//cOKwDYO8zyf++wAoC9wyz/9w7HFsreYZb/e4dZ/u8dlvofIi8FvNQmcCQN5pDGoYKym9OzZDYoNylPyFy14/LO9dsR3DFz1Zpgj3SZYJKZdsqySRLxpdWAVmE6Te39U2C9jjqyzyhsdxZ+WpHUkTKRYyllB5cpyjXSs3btuH450m9Wrlt3xfIv6Sgz9RziqGnDnFKH86YAanvR17g6+FEYR+FgxzKbaR/pKivPYRi69C9h2kv5MTjsceibZPRgSygWuSe6/hjePACsjcm7mJDEs+xhup8Bf6SfG14/aQC7u3gZCtkkdg/4mfi0Ue2CtJfMUdojFgv/WVhuktSz9GUiOfr5Cq8tvCkYZnhZ+jHtYOUC4q+E8g8zuUxNx/J/8A2Ajqag+XOw3RdlJemOvyMGyEL5xnWcSwSJZPuPQtAP3nvHIjXmUM3hEuqP8IPoMaYe0S/IA52vJ6PBNYfrgb8jBsxSME4qXkTT6YSa3LbojeOHCH9kfnMNPVxAE7nhYBlG5WfS3xHDZyGzzDE89auZ9EA2DzkOzQXC/CUPFKXVLuWPggtcUl7hJIi6N39HTFgWgv8koaV/74zKU+YU3sFI9wX7q7xKKkTquNIBpS6kTIPuzd8RE5yFdMLb3WTCKuO9d3rSAtIXCfwV3SenaQNy73DE8x+WbZQI2vNDX0iQhcztsqeuKqlncHBoS0riL5+gvPR7pwvAvcO8qTBz5O+ISZOFcpjTKjkKOt0+19qkRP6YfpLURe4TZcDtHfJtZspijq+htJR3aUvEaQzzA14xp7fHtahEMn87JRPvfX0iyn8O1KW9Kaijcu1JOmlJNwmVUw6eKecDUSGnl/xnwTWqLqE/ykO2GgYVe9+fvyMmZxaW5ywCx3wPdFWc8qMQhxVJ/VG2pq4kQQQVfo6DTh3KXq7tLUY9P4EqOB3zPdFYSU9K64/DI6lHdtDAXpOrN6cQaS+tLlosvVPvIk66JbU/MkN5gYL3mbh9l6hH2QTjTH0OVrmdjnYuMJPQfMn9XZu3UQ4O6jbicuOUxLmSpUS/n5gSO2UXMoIx+f2RfrFMG8PciAEBF2muq05B0vkUhKORtE63MIQS/ljOs5U0CPYOO/xWqMt2KpJuEspuL4nldOqtNizfFPFH5SL6VED/e4cLaaY6zhE8vkWpuUDyOS39dSOwyFXHX25Vze8dfv0rOfUpm4PF4K3K5nQ084TKolMlf8mDSXk21IGjaGU9EIYkN0R05HKa8t/CJplQzB9lXl1t7x4UHqzEH4pmWYpMX8tPWUmY+a+cP8q6Qk1DK+nUnEZwjutSlKaVxilzERAsKejvygu1TJRWpnKtF5zjcEdGQxKnP9ajkv5Y1o10voH1S3tTUP2W6ITyLsuuK4PTFIJH8k9Rf0RXDapbJnzlTkM4RzGQegtNvNMx7kLZvbL+WFSkzAWU62zITxlCyDZzesI5Tq8L3+srNReIaaPC/piJ1+reYZTBTeVUV7hwCKLFBDtlkay0P2raaHTv8Khc7vVFGBK+Rq5GQp0ycVTbXwFXCW3uHVatoTPCsCmJm0CnXgosX3F/1VkHo0Q3F3LDwa7EH1rJwiFamNOxfIJDuK28P47b7T8KW4twDXLawzkyWR1NQYtxWnybGvA3bI4GoQzUIc51kiPEKUGgFvxR+ukPLm56xDkOhTkCnBIbZzUt+Cv4ZN3BxVmXOMe1qhDudFTzhsjyjyb8dRX5LGy9cV/6xLnZtDcFhXZKGKUNfywatAYr2iUaxTlWUsBOOYO7QB/+Ineaa2zv8Cg1tEoYMvWHOr3UWdD704g/Zm7pBF9be4c919MsYVNvtUE67UUr/jiW62rvsPdmcumdO8nfFhwyKb3Zahg9KLAC2T7/2nFq1y60toO/C3XTbBdxyp1sx/GuGi/FJYFDA+kC1yeZuuXzgyzOafT7idlQrFOOH6clrT9v9In5UXpOfUButzhWf7RNdrfeIrgrlnEsW7nuCj6Km5ThvEj5jebTygPpLtO6Z2YM1ch70MzEf9/sw3FUX9/ucmW5Bs9pSTDPyxbYLZ/DBMeo6BPZMhSyn27RJ1TUtKHSOCeBM3qB0cxfoI52D4q/SRLI/COTRLRKZCGB9C38fSK+pCPVpLhR7ysP5XnPwrqxskDE5fYy4G+tTXaXFDYjrkEawvYrA7lXztEoD9o35b0wvVXvDucuwX36ptcK8nwOMd3GzzIz0mDKsD+6UKywhqAZUXn27hOlfth7kXCoPHCoqLpWAX1P8+6kveKX2wZEeX5oAd1I7lmmbQ3ijxWizscv5ip6n9qhfkPR46ec7rO5MAdDH4zjsehbuz8C9a1fC92N6SfTnAeE+WMMGhY9Qu48S3rWDHXJzIil1mwEfz/dmwI02bRQXMFRQH3XB+7GzB+22w+oP35Q6EvEnee2hZ8XybCUkUI582BfL4GDOlMTSNnieZhuW/w2pNN8FgEjm094sL/a2xYwt+Q0tbJ3yFaREoFQnn/4hCW5CnhNqTsVh3MsB1LmAmK6cTUF9mDldAt4f8VU3Avwc2Pap5O9w5rNxFG9jzHNB5I8d4DDmwv46kx3hBGGm8d0yyZdgvVgZvKlhPj72U7xcxtAI3uH3QmjOdf8ytYX4rKkeCMR+g8jipDk/QMw3cihierBSsuo5g1RkL9/bQufWyeCz4tUXFQYs2Z3sltfiM3ShkyXsMc/y/wEzC0byTSmB2ltyuOGF+bP+0zclmhXTS+iC7z7hN61oFGz8kDiXP7un1QOLNvokbkSdQe4Y0w3FjKQHizLRjs3SKC/bRLMol1NUhPYWQiCcEjaZ9rI49op6OGvI5HBdLtJQA9WGlPmAgr1FznB+36wqzmVoZD1wCaTQqjGwm8msmJt8YvWEILjerBNSLeoG1/Ge5BOjckbWbC/lBfk8we7aqQFZtBWCJ/FBGKlI/0glSYnAuf+GNNt2Iz22CGzCIT7Yw3GaWNdtcrRAJaMvxBON5bfO6bcWBu1kIcTgUuuB9KNq0QGe/REICyBv5Mksa7qaIAyhHBcImCZ1oVgMJ8hvEVTPM616vBbgSDdZpuxHt1I4e+8WFcDamDv8DEFQPDy6glfyJfFW3XHj8e5wSDdqmaoBzOzg0rhL3tYqKs5zUD5vUNWIEk8HXsipQYJy1KQyjUeV2tgRLfigTLQY/lHlsRf73OCurqo6nuHxbPFcwJy41UFa1kHo4gvhhO0QbqdKgM9WMRI4y96sIW6ulmBM5JE0T/gGbz0751RHaytwnULThhGXlMa0c2bAnTqO/MJNieNv2Ku/UhXtT5B7d2DnD3j/3/pz2RRCWupELXCXy0Ilo6F6LY+35kJbCXyR6epHwjpyrsaq716wjZ68LESnHl3sKqFtXmt0F7CkIU1ZFGsJ5+Zb+r1ZfI3SaQrgsXej6UwhfCxrj/lHR7VsHboDaMJWZ5MGNHt0X1mZoudVP4i7x3r36CuWpPWNtmiqotnpGbwb+56tYJ6WOu9TpoTgAkdpTeiW+Qi4S/z4O8ul78PBbtyud1RUz5bRXJaoW/UCaxUxFpy4zkTeoQNvV5RAN26YOafr8wEYZL5S7k32hBQV2ku23mPyuhuMiiqiubV1CQRZwzVfPQID4boxmhqrrGUh7Ez95SKhLL5IzsKSDo5dvpKLAVV2zskMwmGSZ/P35qpRBYmLugRVu/gR2FAumWTSA44TIzMjyCdv9RTeDvFkf6FYJQOYkrtHdLmB5iuSv0nvrIkLJlc9Ag5hqC6bZPSMv2vQJLRkM8fZbE/EFlIJrpXaO+QSgt4zyCyCimMrTtO8Agbjmk+kGDdije5bdLP8n98da3y+eNncgohzYVlN2yZT7yif2X6idVBtqe6pPn6E5VT8AjJuCK7MZqO6OLlp8l8nzL6W60oQldEJrUMhawElpUY8MtBKDULRmms3XsSO8Jmi8C+PiImYaxcl828axldDSKKNK9eookKlJ4CnACqY/1/qjjWrgY8QqbG4G78VWhk/M9cFP1+Ysroqn5SDOWlWHN96bFsWwergx+slMcuYtPYEbLyE95tBlXldNWrSJw7YBPZSbAYhOogHS9WHmu7rIUdYWQRKudFfVeD+QOZ5Zs+QW68mr4pUkdPS9IA1r4HdoQsqrWAfQzBuPDePDdumYmziITqoJKiBeyI5x8swRx0hNUihkB9yn1tq10sRCz43YTMe4cE60gdZ+7wW6FqAZu4kXzoCAfRw1WFoEEsaS4nzZF275C1QcQ/WYqSWYjOgLqaV7EWXDF1FU/oupuBrHuHTFOQ1e9iEbogHnktjMGhI1ydFlxFFlEJcG7j0/HfTayi0c4NYnmIrN5EGyQsV1PoCGehBVebayoBzk2uvpS7B94qgqzO4X+2PrDZ0N8deMAtasFVJzLg3Ia9hUzG1RMuycjqVLQ0grV1oOOarBZcHU4KnGtbhhBKuHlEZgNY/S4KdYK1U0aOq4UWXB1MDpxrlScdvGZAVr8vvWBvG7rFU1sHrviJjiQ4d29XJ9veIRUvYPV2W9QH5f0PclxNdOCqkiyE4Z2+pJ9uQhVRjgGrn1c32D6Q42qhA1ftPwohKQtheIfDmwdAqr3D9+X4gauebKMbrB0ncFy9jW5OdB246ksawpAZX6n2DhcKrD5l/WCrIsfFHBo6cDVleQiTF5Vp7/A8wOrfqR/sTDoBjotFgQ5cUUmXB+cOmPrVTDG7idSxZ1z1ho31g00wcQGO60i1NeDqviTCudXOQBqi30/MJK46ZbaOiNNjYZE+AcdFZ7BpwNXeZcK5N0ofRX7XwCZ1RDzOohQ4LsruXQ+tvKuhpcKVrEcSLJlUXHXK80ItkWCFHzuuZq8UPdi2UdpVTq48pJGYegtNDuzUcNUp8/SEtRXh4+pzhSdZq7quCH5JhXM3Lwd1a+Fq7l1TWK5BQl62GssmpsbbUdQV01q5cG4LMmAr4WqOazTzF6gp7L8KGuHymXawotVYRVckEZIRvt6xZNg7vD5cTcoOXWHtmwobYb0hf1Y9V5GrkWSE4eXIsHc4G1xNAkdtYSm9RY6wYr+1FXN1dSydCENW+NAnq7gmaQgJLuksXAn2DllZxNU8nraw2xc7wjmtkE5TK+lqER4hSH0O1jqTXS+VGNKiPRMs9SP6lohlRjq1hOnoYfywml3pC2tbCb4Gl5DWT1NtfylJ6KXg895sXwLviIr+VfjuQen3QYurSVKjMexri78BJxjqXnl/9RuNU9iPpQ4pfPWEMVRxNVk4awxbR4L77/Dl+FFIfX9tOMQ1FHP14fjauejNo7fA1Xx3jWEnvHx/wLOQae9ZfX8z4LbF/IX4O7XoxTOCMljN8Y9hbgSNYS3LEQlI84KW+deOo76/K/dWm+8W4C/36wXvHXYNq7l7rZFgESIBaS71nncR6jvdDkmJAH+rTJtZWPXWsJoEmVojzkLGH2KytDqHBpxGn8g2g7vieFwodO9wjPOGhBtN9GCrNeKby5cF55JL4T8PTPWddvCjMKYHd3WrQvcOec2AGw1LQa0RT3yFP0Rl+W5yqKvvtPC8aFfdCd077Aw3mvfVG5a0wB/isvzECdV3SukNdrX8FZXLLKomD2vYaL5Nc9hGUhGGy2SriPpOubiBXbFwE4jlGAUbzck0h52NXIQueV71f7r6PbCuCH4LxC4FNpoBNYet6Q+xWabnfSau8k5J87GuGE0tsOaaYaPhGK45rP022XCu69Up/yUoklGoK9a0EViTyjxsDMvQHXZ60uFcARcH1Z3eX2ukK8pWgTXvAjYGrhK6w96OP4RnuZ1CxZ16aYZ0NcwMxNU8IGwMrINRd9gXlRHnSPtPqLjTFkhXexe2d9gYN4bp6A57DikJw+dkFzK1nbbZKdDVeYTtHXYOG0OyUHfYPDkJw2UeT22nZFKBrthmTtjeYZewMTTUHtbWk5MwHOIdlHb69XPCudqpNwWwgmpWgo2hov6wzMxISujq3bbSTncLdPUOVlBNViCwMWxcf9irkRXn5tSHyk7/tQTn6p1F1SSVgI1hK/oj8RbS4ty4Vqey0/UDfyZUVE3vqgobA2mX/oh7VzV5ca76OyjslNeaOFctRdWMrPqwMRDdpD/ikTYGIQB/4H476jod03wg1YK52ulMxNQs/RrUw8HGQFCpP+IjnW9ggheJce7bulHX6Q5wrvYrombkPWiYFLF8w42BpFB/JOxAMuMcM8uRz8JW1umecK4+AF8pspCR5JG8I8fAokCD2JuVmjCc16jmFUlVp0fGufoMdKU8wpJ87BgICjWIPQbX3WFkJgyfRNXfWlZqLhDJDcwLEx9spQb9ktyjx/DH/tBQlglXISfPQk51c12QFi2Y5cyVrF/Ch6GseKnq9MIwLyyyoJUW0krAn3jmD81lSflR4G6OcqqcvodtWyDPLVERVwlF/ZEkw7zsAFipzVRFjGFAf2gyyww+udGAL9BUjjsiKhdDq+mvEcwLh1Hck6tT02ZcQq6FZGr8odMs9FhYLGSIjpXiL4vbSQMl/fHTijAvO0FVqkzZKkj58f2h2yzfdX0tagh/HHJqJf0tCeaFzDKoEivaDUUppxwLAMoFaM6J/tcIfhia7ExFV1VgXp4cUmllhxSnvKU/9Jxl+6duKPRh6Jm9z8RVcfcA5oXyHFHpXwcSqJzMhvZJN0fjT3lTOOn/7j0FXa0V5oXDI6BSnXYir3Fn9ofGs3gb5U0IwzlCI/VceVMwMC8lGa/UqEjoDS7HV39oPUvvmxD2WQjJza0q52qLMC81Mhq/8Ss5oTg34YAhnpjJwu9CDGE4nHKuKsO8zCmD8SdM2isaR4XIH5rPstbzFgkhDMmhppqr+jAvU8lY/NRbaFymhOO83VmChjSXJe1PCOH8J6yYq0owL80yFN8jBKcUTzhAEGFt4c3lCpkHZZhirv4B5uW0GYn/r1y3JCD0rpqBQro5em4lYh412qjl6uZgXnaXgfhVmslAuK7gofxXG0bQLGIeV6CWK4I0mJdb8x//6ytKQThFcWjwrSTyims1/DySj6GUF8Jh2Nl4eN/xt0llUQ5Cghh/BEWWLdwDfh7DquQlZS5gx7CzwSTYb/wZcB2RhJA0J8CIJ5b75Ph51FHIC7Gx484GEzO/j6wpW2UhpKwLMqy9sYHg8yAzqZCXeePORvc+47+RNLgpBxrWfj2Z3/B5nEMdLyybcWcj8mpKf/G/Ux7ccEFGmv9Oi54Hy2FlvCyxY9wf9TcTX/GXlCsPjnQn4LA2b8PoeTARVsXLhXBng+Wcr/ipt9D6lAhXPeiwltcMVK7B89iJKl7uHXc2luInfnYTmXDJukGHtSSSD4SdR/4zquHl8XJxZ2O9fuJ/uEyQ7gx5zOzAw1qmZqLeMwBd/M3HP+vnhrSGLBywxTFO5O+IBVGWR8LOY00TVsFL9gvgzkvBWmPHL9yfHLzeeTfZwNqgJH4s8HsP4t3DRAUvbKMHPC8tffzewcEkgOXhTzDVP7S/IxZkWUq/muIeoDM6mQJesi8MPC+7jf17B6f+QILJnyMLzyP7O2KBl+U7oTNKnkh+LwMgz0svMX/vYDaHX0IZhkzTIB8Zjwcy1nYHndF5pXfwvmcGOigq+1IwY8Tfk0haRg+2Xq8oNhHMpNnybAd9AXjFsjuYDfK89Boze+0lCGOnnTyxtUGOtb1Ar6KfLLmDcySR54XSO+bHbkVRgzLDS2Ib9Nhs0gXkLfSp5XYwHTJH0JuLKE0b62P71cRQMMkbs8GPtUdBPj7rq1hmBx1NQfcGpVXM9BsRw+5YB6M1Aqw9Pg7niPDI7IBKOvaxIsfwWB9sFRZCZbbRKzYF7JKSwDttgjCJHXANwuK2Uy5zeh8E/SJ4sprWGLD2EYBXW4I5eR38EZjZxnreYdbgF0CtRtYEEDI3pp9vIKmDYspIMO6+Yj3vMMtWPC+wfbMgEWcxApzb3uR00LhvNLm1YzzvcH/N4fT69aZBnKk2cG5MC6R04L1OmpZo3JDp90jETw7nMRsohw5/hTXpAW5uk5PQQfaLjguOozPYYrC1ntCQSS02DxJ2lcC55UnngKXgLTs8hIMxiH8omk6MBDtwEje3hcvVt7izAyUFEEY2cjEoNRfoSsD03dEUtJFg7ZsCv98vU1/aZt7AhZ0Twc5iEPdqWTBUWrwpGEPBrhc3/q+Rom/KjwI/R2QHMwsZL727/SznxBD+WgwSV4yNf+Ftmgq2DW78B8wB9KBi7+84SZRl7MObCxgDek6cB4LGbzewsWDtQLjxnwjQYyFyE64pnb4C3iWc5O8bDHYOuPG/O6DH9iV/9/XS65um5uKh8b/CZLC/jxv/wQA9GidlJn9j6fUtV7NmATL+vMY0H0gmg53wTmHjPySiR2WJCeeXbt9yEU6FjF+yOqPB2qnBxk9lEdGjV5nfh9GxfCZOzL7bRsbvxHCwzKTCxn+m4c0DAOjRnbyEkRvDmH3XmguMn+sRAsPB7g03/ucA9PgKeWHZaWN+8NOKyPhbNx0S/eHGH3nLD+ixAWkhufny2B9vBIx/5pWZDvGXbAobP3NoAHpw20JWQm+jZ2N/UJkHxifjbzzE4ywPYeN/NkCP/5YVwtKYfa3dYgEu/jDR7yem+ZA4AGz8hFGAHvwoICkE6yuL2dfaowLjX9yAsH3DjsQsAD2812CXk34qxe5r7dZx8ZNdGhB2ENiReGhAD/ZqSikJp+DDlbW7w8XfuAlhqejCjsTiEW9pqZSMz5ernFxc/EYmhF0P7Ei0RLyXwU0l5GZzfLn6V1x8jh9lTuGZEHbqsCNxF4ge/chHrzPw56oXXHyKASPCVoEdiU4RPapLxym/3qcrjj64+H9uRNiasCPRDtGjoWxMLs+vK8JyXPx5GhF2ZbAjcUBED47HknEXvft2xcovWPwhio0I2wB2JGogevQlFxWpEPl2Ndq5Qf3A4jOtMyNsDuxIlCB6tJWKW87AG/v0e8AXkG9G2LqwI/FAiB5cd2Vid6m30DLgyksBXPyNmhF2i7AjcUBEj64lgkN144y4+mpc/MhnYZsR9n1hR6IhoscSpKE5Ed/2pqAy5OomYPG7MiTsDcGOBOExosecZGGIOhl0dQJYfJYdhoBE3y2cP6JHDUl40ioZdTUkrNJXGBIJ7yIOOxLfD+jRWA6an9SbAmTYVQtYpfcwJOLk0MK9MRyAHpWlgHDDKxCAq6nBKp3KkIg/OOxIsGwF9KDT1BJA8s4ybbEIVy1hlTZpSMS/CHZMHgrQ4x3E8+S/iXF1YVgl1sFoSCRY1sGOCUkCoAeFnGi6ilxNUa947i5glboxJOyeYcfk8gE91iWWwR98iTBXncIqeZ+Ja0jkDAM7JmyjJ/cfxXOkt35JoKt6sEodfitUM8K2wR2TPgA9SPLEwcq8t9qUbiFDXdWAVWpgRtiF445J74AeLNoE0W6FxOREuyqBVco2I+xuYcekoBDQY+wiOOCVX7QB3tVOYSd6i2aEnS3smJDuIHoMDqfiCjtrLMTVAWE3aJXNiAkXwI7J3wF6jHj+wRYhqX7G3a4uT5gr3L+LU+oDciPCrkeml6JYhhACmHbrp2H5l3SAoGI11LThKlG/WKirK4A9mo0+m8mIsIPh7iT61Iirz4J9LuutgkaEnR7uISIrEI24ulMUIduha0REv5+YwH9qqtRbaBpxRdKLImQYYEJYUjMcd6ETVyfHvYR0E8I2geEoK3Xi6p9hX96YowlRe6cw3B/pxN+Nw7680ZUBYTka4XC3rRN/n4J7xyqmYz7Y4+PYafv/LJBO/LEUxH11izZK5sPAJTAcwYRW/FXBfXFzfMaDJZOKfOJZrfgr3CkKx3XceChDIXeMI9yoVvxZLn9RuFqNDQfLjBMQkvsv1Io/S6YGQPl/p67hMJN7wxEy7dCLP7sBGK5vs8HeC5Cwml782aowXMO6RkPK44ZnuQakacoLcs34GxqGc3s3GRLexglISDCnHX8cj3FfLiEtMBlGNwfGd0Pf+x+t+AO/cYz9fKS5EJ8+krBL7fi7ceAnTP9iLmxt/UhOqx9/dBADPmK+qUFNhfhwSByph3b8Jb7wTMgXT28qfB2Uks61QzzOtBv5S0yKzYSt3QMSt2bt+Csb4TKR2qZgJMSZNkNxVHS1469shJdFaptcXRPhqbBQnnv/FFg7/spFaAvU5qjYGwjzPBMUxzFKP/7KRVgNUJv71ej3E9M4+NybwlI0tJ78/SwQ5w5pHC8257OxuO705M92NAXdKRDnqpoFCYI0MI6tInrCWiopSFynNY0CCms0b6orbCUkzm37kuaGMgiYGpeAcb+gK6wl8xuJC0lCzIGzFKE5ZY6O/KX9eF4oYVMvdUwBqjUL0LjVaclf2o/p1EAShh17d7CYAcsrglNRT7+7qbwE1w0lDJ+mjQnw/yVp0P1nbOl8RF5yYwndhrsJfEY1b4ikRQ7PmxbrzGkiznS2PHB/r2aVgOcj70YAbjZ6I+6temCca9tloOO5cd2UCKaqOeJdEKzAVc5pIcHNsd6C8FUEHF9PpDkS1ruHCV5l0TGCmtKfyUIwF4rAUUZqD1t3O3iVbhbnCmJKzQXyNl7jF8OGJ6w9rI0+McfjwmV2H7xsdBOhGNxFNYjN5roEp9zzWpGd+kLBCmtjusNQFC005jTdCL8AJ82F8PidC4OT0r93hm7zhdFu8hpzmn6scZYPWG/Fqu1NQQUixd7dxZl2NBf5ZyfrzGn6sVLP4ChKgwC9rfqtGXjkNWL5JwwF8vdacxoj1qeJoLzXI0eZ10d2gFF/vZRjJaFQCM72qyHPvi/vy/JcpN6GpFV7Yy6CAKKYTlOvbkjxf4ZbU6IV9Ym1LC1E6k3z/cjenmgAtopUqv++hdqn9NeNsOlDe++dPvpUaAqU3jv+murOOeGEZCfplMTw5gIO5A/Dy8LKwhfqlHi81Lsp/s3f0TG6LPdwXL0ST5BY+DtOJpcl/0Lau5ONHat4qv6Ok8Fl8YqH/h5j+YhV+8n9HSdjy9Kt/oj7iTWpIn/HydCyED02O/0Rxz17lpllIVh6QA2S8BWr+Jv8HScTy3Ik9mpK7ZLOiycj88/fcTKvLNPemLaxto3PZyM1rSwdf4DGsdZLwfH7O05mlWXu3kVc69gEY6jmGx/da554vJq/42RQWdavf+IJpsH+jpMxZRmCtUH0ic1IrK37O2KGlGXwv9QoNkOxxufviBlRltP9ok6xGYs1FX9HzICykAycWavYDMY6Rom/I2Y6WZjmv75esRmNRWpc4O+IGU2Wnpi4xAMFa3+/ur8jZjBZBj9O0GDtJHw+n56xZLmG5wgebOLHpu/viJlJluYvMmgQEY8fi0loc0Nimd3HdUwCE/W/2xkR1z26OdH1TBwUtT6HCfOhr6tOaJo4KmpOoxpmQ8F5flTbxHFRU7+aicqiycBlaklW3ySAUQv/aE6mwoYvkaNzsFE9QkBaayTU62UGVufg/wmk/sc4yH2jsT4PU5ASj3dxbIJ1o2BOa5qO1TtiotY9VUVjgMrpwd7XBi9pPgedQksjYOOf0sAGMOm8WCUyNQ8U8NTb8TtYGxBYYfHzNsB1Nbh5oBYLb2yDAysyPhPI/Fg5DWLmvp9lfL21QYIVG3/QyCpEEL3aYIVw4wb4QWEG1gYMVnz8brx7mHAsefJg3Ck43cMPwi5k+jxi6v3bww5ddZWUrU8eYLRjmznSAir2XoGU+6aygRDjchpisHlXteT/dstMF+lC219tl6t/8lu3fvK2b0rZ8YKr2cEU3qF2miMWqBhHlgrdSPgbTeY6i7/RZK6z+BtN5jqLv9FkrrNk+Yf1N5rMdRZ/o8lcZ/E3msx1lkSmf/fg0kLI6nbvMPNPlv97hxUA7B1m+b93WAHA3mGW/3uHFQDsHWb5v3eYFcDeYZb/e4dZ/u8dWg==;" vertex="1" parent="2">
                    <mxGeometry x="245" y="110" width="80" height="80" as="geometry"/>
                </mxCell>
                <mxCell id="6" value="&lt;font color=&quot;#ff9933&quot;&gt;Temperature : 18&lt;/font&gt;&lt;span style=&quot;font-family: Roboto, sans-serif; background-color: initial;&quot;&gt;&lt;font color=&quot;#ff9933&quot;&gt;&lt;font style=&quot;font-size: 10px;&quot;&gt;°C&lt;/font&gt;&lt;br&gt;&lt;/font&gt;&lt;br&gt;&lt;/span&gt;" style="text;html=1;align=center;verticalAlign=middle;resizable=0;points=[];autosize=1;strokeColor=none;fillColor=none;" vertex="1" parent="2">
                    <mxGeometry x="220" y="190" width="130" height="40" as="geometry"/>
                </mxCell>
                <mxCell id="7" value="&lt;p style=&quot;padding: 0px; line-height: 24px; margin: 0px 0px 16px; font-family: Roboto, sans-serif;&quot; id=&quot;humidity&quot;&gt;&lt;span style=&quot;background-color: initial;&quot;&gt;&lt;font color=&quot;#ffffff&quot;&gt;Rain: No rain&lt;/font&gt;&lt;/span&gt;&lt;/p&gt;" style="text;html=1;align=center;verticalAlign=middle;resizable=0;points=[];autosize=1;strokeColor=none;fillColor=none;fontSize=10;fontColor=#FF9933;" vertex="1" parent="2">
                    <mxGeometry x="250" y="250" width="80" height="50" as="geometry"/>
                </mxCell>
                <mxCell id="9" value="&lt;p style=&quot;padding: 0px; line-height: 24px; margin: 0px 0px 16px; font-family: Roboto, sans-serif;&quot; id=&quot;humidity&quot;&gt;Humidity: 90%&lt;/p&gt;" style="text;html=1;align=center;verticalAlign=middle;resizable=0;points=[];autosize=1;strokeColor=none;fillColor=none;fontSize=10;fontColor=#FFFFFF;" vertex="1" parent="2">
                    <mxGeometry x="240" y="210" width="90" height="50" as="geometry"/>
                </mxCell>
                <mxCell id="10" value="&lt;p style=&quot;padding: 0px; line-height: 24px; margin: 0px 0px 16px; font-family: Roboto, sans-serif;&quot; id=&quot;humidity&quot;&gt;&lt;span style=&quot;background-color: initial;&quot;&gt;&lt;font color=&quot;#e6e6e6&quot;&gt;Wind Speed: 2.57 m/s&lt;/font&gt;&lt;/span&gt;&lt;/p&gt;" style="text;html=1;align=center;verticalAlign=middle;resizable=0;points=[];autosize=1;strokeColor=none;fillColor=none;fontSize=10;fontColor=#FFFFFF;" vertex="1" parent="2">
                    <mxGeometry x="230" y="230" width="120" height="50" as="geometry"/>
                </mxCell>
            </root>
        </mxGraphModel>
    </diagram>
</mxfile>